
<svg width="555px" height="114px" viewBox="32 335 555 114" version="1.1" xmlns="http://www.w3.org/2000/svg" xmlns:xlink="http://www.w3.org/1999/xlink">
    <!-- Generator: Sketch 39.1 (31720) - http://www.bohemiancoding.com/sketch -->
    <desc>Created with Sketch.</desc>
    <defs></defs>
    <g id="FirstOffice" stroke="none" stroke-width="1" fill="none" fill-rule="evenodd" transform="translate(32.000000, 335.000000)">
        <g id="Group" fill="#EC6851">
            <path d="M429.6,74.3 L429.6,106.7 C429.6,110.9 428.3,112.2 424.2,112.2 L413.9,112.2 C410.7,112.2 409.4,110.8 409.4,107.6 L409.4,54.4 C409.4,52.3 408.9,51.7 406.8,51.8 C401.2,51.9 395.5,51.9 389.9,51.8 C387.9,51.8 387.5,52.4 387.6,54.2 C387.7,71.7 387.6,89.2 387.6,106.7 C387.6,111.1 386.5,112.2 382.1,112.2 L372.7,112.2 C368.6,112.2 367.4,111 367.4,106.9 C367.4,89.4 367.4,71.9 367.5,54.4 C367.5,52.1 366.8,51.6 364.7,51.7 C358.9,51.9 353.1,51.8 347.4,51.7 C345.6,51.7 345.1,52.2 345.1,54 L345.1,105.8 C345.1,106.6 345.1,107.3 345,108.1 C344.7,110.8 343.2,112.2 340.5,112.2 L329.8,112.2 C326.1,112.2 324.7,110.8 324.7,107.1 L324.7,86.3 L324.7,53.9 C324.7,52.3 324.4,51.6 322.6,51.7 C320.9,51.9 319.1,51.8 317.4,51.7 C314.5,51.7 312.9,50.4 312.7,47.6 C312.5,45.3 312.5,42.9 312.7,40.5 C312.9,37.8 314.5,36.4 317.2,36.3 C319,36.2 320.9,36.2 322.7,36.3 C324.5,36.5 324.8,35.7 324.8,34.1 C324.7,29.5 324.6,25 325.3,20.4 C327.3,7.7 335.3,1.4 348.2,2.1 C353.2,2.4 358.1,3.4 362.8,5.3 C365.9,6.5 366.6,8 365.7,11.2 C364.9,14 364,16.7 363.1,19.4 C362.3,21.7 360.9,22.4 358.5,21.7 C356.5,21.1 354.6,20.5 352.5,20.5 C348.2,20.4 345.7,22.5 345.4,26.8 C345.2,29.5 345.4,32.3 345.3,35 C345.3,36 345.7,36.3 346.7,36.3 L366.3,36.3 C367.7,36.3 367.7,35.6 367.7,34.6 C367.8,29.9 367.4,25.2 368.1,20.5 C369.9,9.3 377.1,2.2 388.5,0.7 C398.5,-0.6 408.2,0.7 417.8,3.6 C421.8,4.8 422.4,6.2 421.3,10.3 C420.6,13 419.9,15.7 419.1,18.4 C418.1,22.1 417,22.7 413.3,21.6 C409.3,20.4 405.3,19.2 401.1,18.7 C400,18.6 399,18.4 397.9,18.4 C390.9,18.4 387.9,21.4 387.9,28.4 C387.9,30.1 388,31.8 387.9,33.4 C387.7,35.6 388.3,36.4 390.7,36.3 C401.8,36.1 412.9,36.2 424,36.2 C428.7,36.2 429.9,37.5 429.9,42.2 C429.6,53 429.6,63.6 429.6,74.3 L429.6,74.3 Z" id="Shape"></path>
            <path d="M310.8,73.3 C310.8,81.4 309.9,88.3 307.2,94.8 C301.5,109 289.3,114.4 275.8,113.1 C261.1,111.6 252.5,103.8 249,89.2 C246.3,77.9 246.3,66.6 250.2,55.5 C255,41.6 265.5,34.9 281.3,35.3 C294.2,35.6 304.5,44 308.4,57.2 C309.2,59.8 309.8,62.3 310.1,65 C310.6,68.1 311,71.2 310.8,73.3 L310.8,73.3 Z M267.7,73.9 L267.7,76.6 C267.9,81.6 268.4,86.6 270.9,91.1 C274.2,97.2 284,97.4 287.5,90.9 C288.3,89.4 289,87.8 289.4,86 C290.6,80.9 290.9,75.8 290.6,70.6 C290.4,66.3 290,62 288,58 C286.7,55.4 284.8,53.4 281.9,52.6 C276.5,51.2 272,53.6 269.8,59.2 C267.9,64 267.6,68.9 267.7,73.9 L267.7,73.9 Z" id="Shape"></path>
            <path d="M533,79.5 C527.6,79.5 522.2,79.6 516.8,79.5 C515.1,79.5 514.6,80.1 515,81.6 C515.2,82.7 515.3,83.9 515.6,85 C517.1,92.2 521.2,95.4 528.8,95.7 C534,95.9 538.9,95 543.8,93.2 C547.7,91.8 548.5,92.2 549.8,96.1 C550.7,98.6 551.6,101.1 552.4,103.6 C553.3,106.4 552.7,107.8 550,109 C541.4,112.9 532.3,113.9 523,113.2 C505.7,111.9 497.1,101 494.5,85.6 C492.7,75.4 493,65.3 496.7,55.5 C500.6,45.2 507.4,37.8 518.7,35.9 C535.8,32.9 548.5,41.5 552.4,58.4 C553.6,63.7 554.2,69 554.2,74.4 C554.2,77.9 552.6,79.5 549,79.6 C543.7,79.5 538.3,79.5 533,79.5 L533,79.5 Z M524.2,66.4 C526.8,66.4 529.4,66.3 531.9,66.4 C533.4,66.5 533.7,65.9 533.6,64.6 C533.3,61.8 533,59 531.9,56.4 C530.6,53.3 528.5,51.5 525,51.3 C521.4,51.1 518.9,52.7 517.2,55.8 C515.7,58.7 515.2,61.8 514.8,65 C514.7,66.1 515,66.5 516.2,66.4 C518.9,66.4 521.6,66.4 524.2,66.4 L524.2,66.4 Z" id="Shape"></path>
            <path d="M33.2,67.1 L33.2,106.6 C33.2,110.9 31.9,112.2 27.6,112.2 L18,112.2 C14.1,112.2 12.8,110.9 12.8,107 L12.8,54.7 C12.8,51.7 12.8,51.7 9.9,51.7 L5.1,51.7 C2.3,51.6 0.8,50 0.8,47.2 L0.8,40.8 C0.8,38 2.4,36.4 5.2,36.3 C7.2,36.2 9.2,36.2 11.1,36.3 C12.5,36.4 12.9,35.8 12.9,34.5 C12.9,29.6 12.6,24.6 13.5,19.7 C15.6,8.8 22.8,2 33.9,0.6 C43.6,-0.6 53,0.6 62.3,3.4 C67,4.8 67.6,6.1 66.3,10.9 C65.7,13.3 65,15.7 64.4,18.2 C63.5,21.5 62.5,22.1 59.1,21.3 C54.8,20.3 50.6,19.1 46.2,18.6 C44.2,18.4 42.3,18.3 40.3,18.7 C35.6,19.7 33.4,22.3 33.4,27.1 C33.1,40.5 33.2,53.8 33.2,67.1 L33.2,67.1 Z" id="Shape"></path>
            <path d="M199.4,75.9 L199.4,53.7 C199.4,52.2 199,51.7 197.5,51.8 C195.5,51.9 193.5,51.9 191.6,51.8 C189.1,51.7 187.5,50.2 187.4,47.6 C187.3,45.3 187.3,43 187.4,40.8 C187.5,38.2 189,36.6 191.7,36.5 C193.7,36.4 195.7,36.4 197.6,36.5 C199,36.6 199.4,36.1 199.4,34.7 C199.3,30.4 199.3,26 199.4,21.7 C199.4,20.5 199.6,19.3 199.8,18.1 C200.1,16 201.4,14.7 203.5,14.3 C207.1,13.5 210.6,12.6 214.2,11.8 C218,11 219.9,12.4 219.9,16.3 C219.9,22.2 220,28.2 219.9,34.1 C219.9,36 220.3,36.7 222.3,36.5 C224.6,36.3 226.9,36.4 229.1,36.5 C231.9,36.6 233.6,38.3 233.6,41.1 L233.6,47.3 C233.5,50.3 232,51.9 228.9,51.9 L221.4,51.9 C220.3,51.9 219.9,52.3 220,53.3 C220,65.4 220,77.5 220.1,89.6 C220.1,93.5 222.1,95.1 225.9,94.8 C227.2,94.7 228.5,94.4 229.7,94.2 C231.7,93.9 233,94.6 233.5,96.6 C234.3,100.1 234.9,103.6 235.5,107.1 C235.8,109.1 234.9,110.6 233,111.1 C226.3,113.1 219.5,114.1 212.5,112.9 C205.2,111.6 200.7,106.4 199.9,98.7 C199,90.5 199.7,82.5 199.4,75.9 L199.4,75.9 Z" id="Shape"></path>
            <path d="M162.1,35.4 C168,35.2 173.6,36.3 179,38.5 C182.8,40.1 183.5,41.7 182.1,45.6 C181.4,47.5 180.7,49.5 179.9,51.3 C178.6,54.1 177,54.7 174.2,53.6 C170.6,52.2 166.9,50.9 163,50.9 C159.7,50.8 157.5,52.1 156.7,54.4 C155.9,56.8 156.7,59 159.3,61.1 C162.3,63.4 165.8,65.1 169.1,66.9 C173.5,69.3 177.5,72 180.9,75.7 C190.4,86.1 187.1,108.6 167.6,112.6 C157.8,114.6 148.4,112.7 139.2,109.6 C138.4,109.3 137.6,109 136.9,108.7 C133.9,107.5 133.1,105.8 134.1,102.8 C134.9,100.3 135.7,97.7 136.5,95.2 C137.6,91.8 139.4,91 142.8,92.2 C148,94.1 153.2,96.2 158.8,96.2 C159.5,96.2 160.2,96.2 160.8,96.1 C165.3,95.3 167,91.6 164.7,87.6 C163.5,85.5 161.5,84.1 159.6,82.8 C155.2,79.9 150.4,77.8 146.1,74.8 C136.1,67.8 133.3,57 138.7,46.6 C142.1,40.2 147.8,37.1 154.7,35.8 C157,35.3 159.5,35.3 162.1,35.4 L162.1,35.4 Z" id="Shape"></path>
            <path d="M437.7,74 C437.5,67.7 438.4,61.6 440.8,55.7 C446,43.1 455.6,36.6 469,35.5 C474.7,35 480.4,35.7 485.8,37.7 C489.4,39 490.1,40.6 489,44.2 C488.2,46.7 487.5,49.1 486.6,51.6 C485.7,54.2 484.1,55 481.5,54.3 C478.5,53.5 475.5,52.7 472.3,53 C465.4,53.7 461.3,57.6 459.7,64 C457.9,71.3 458,78.7 460.2,85.9 C462,92 466.3,95.1 472.7,95.3 C476.5,95.4 480.3,95.2 484,94.1 C486.4,93.4 487.9,94.2 488.4,96.7 C489.1,99.9 489.7,103.1 490.2,106.3 C490.5,108.1 490.1,109.8 488.2,110.4 C475.4,114.6 462.8,115.4 451,107.6 C443.5,102.6 440.4,94.7 438.7,86.2 C437.9,82.2 437.5,78.1 437.7,74 L437.7,74 Z" id="Shape"></path>
            <path d="M104.5,45 C108.3,40.1 112.3,36.5 118.2,35.6 C121.8,35.1 125.5,35.1 129,36.2 C133,37.5 134.2,39.9 133.1,43.9 C132.2,46.9 131.3,49.9 130.5,52.9 C129.5,56.6 126.9,58 123.2,57 C121.4,56.5 119.8,55.6 118.2,54.8 C113.9,52.6 110.3,53.8 108.3,58.3 C106.1,63 105.8,68.2 105.8,73.2 C105.7,84.3 105.8,95.4 105.8,106.5 C105.8,110.8 104.5,112.1 100.2,112.1 L89.9,112.1 C86.9,112.1 85.4,110.6 85.4,107.6 L85.4,41 C85.4,38 87.1,36.4 90.1,36.4 L97.2,36.4 C100.6,36.4 102.5,37.9 103.4,41.2 C103.8,42.4 104.1,43.5 104.5,45 L104.5,45 Z" id="Shape"></path>
            <path d="M75.1,74.3 L75.1,106.9 C75.1,110.8 73.8,112.1 69.9,112.1 L59.6,112.1 C56.3,112.1 54.7,110.6 54.7,107.2 C54.6,103.1 54.7,99 54.7,94.9 L54.7,54 C54.7,52.1 54.3,51.4 52.3,51.6 C50.5,51.8 48.6,51.7 46.8,51.6 C44.3,51.5 42.7,49.9 42.6,47.4 C42.5,45.1 42.5,42.8 42.6,40.6 C42.7,38 44.3,36.3 47,36.3 C54.9,36.2 62.8,36.2 70.7,36.3 C73.5,36.3 75,38.1 75,41.1 C75.1,52.2 75.1,63.3 75.1,74.3 L75.1,74.3 Z" id="Shape"></path>
        </g>
    </g>
</svg>
